<svg xmlns="http://www.w3.org/2000/svg" viewBox="0 0 356 43" role="img" aria-labelledby="titleID descID" style="fill:#006644;fill-rule:evenodd;clip-rule:evenodd;stroke-linejoin:round;stroke-miterlimit:2;"><title id="titleID">Babson College</title><desc id="descID">Babson College logo</desc><path d="M328.4,42.2l-3.5,0l-1.3,-3.1c-1.6,2.4 -4.3,3.8 -7.2,3.7c-5.6,0 -9.6,-4 -9.6,-10.6l0,-21.6c0,-5.9 3.5,-10.6 10.5,-10.6c7,0 10.7,5.2 10.7,11.4l0,2.6l-6.8,0c0,-6.2 -1.3,-7.8 -4.1,-7.8c-1.7,0 -3.2,1 -3.2,4.5l0,21.3c0,2.6 0.9,4.4 3.3,4.4c2.9,0 3.8,-1.6 3.8,-5.8l0,-4.1l-4.5,0l0.2,-5.4l11.7,0l0,21.1Zm-135.1,-27.8l0,-3.2c0,-3.5 -1.6,-5 -3.5,-5c-2.9,0 -3.8,1.5 -3.8,4.6l0,21.1c0,3.1 0.9,4.6 3.8,4.6c2.6,0 3.5,-1.5 3.5,-4.2l0,-5l7.2,0l0,4.8c0,5.9 -3.5,10.6 -10.6,10.6c-7.5,0 -10.9,-4.8 -10.9,-10.6l0,-21.5c0,-5.9 3.5,-10.6 10.9,-10.6c7.1,0 10.6,5.2 10.6,11.4l0,3l-7.2,0Zm-97.2,-3.6c-0.3,-3.6 -2.2,-4.6 -3.8,-4.6c-2.3,0 -3.6,1.5 -3.6,4.1c0,7.1 14.5,10.5 14.5,21.8c0,6.8 -4.6,10.6 -11.3,10.6c-6.7,0 -10.4,-5.3 -10.7,-11.5l6.8,-1c0.3,4.2 1.9,6.3 4.3,6.3c2,0.3 3.8,-1.1 4.1,-3.1l0,-0.7c0,-8.2 -14.5,-10.4 -14.5,-22.3c0,-6.6 4,-10.4 11,-10.4c5.8,0 9.3,4.2 9.9,10.1l-6.7,0.7Zm12.5,-0.2c0,-5.9 3.5,-10.6 10.9,-10.6c7.4,0 10.9,4.8 10.9,10.6l0,21.4c0,5.9 -3.5,10.6 -10.9,10.6c-7.4,0 -10.9,-4.8 -10.9,-10.6l0,-21.4Zm99.1,0c0,-5.9 3.5,-10.6 10.9,-10.6c7.4,0 10.9,4.8 10.9,10.6l0,21.4c0,5.9 -3.5,10.6 -10.9,10.6c-7.4,0 -10.9,-4.8 -10.9,-10.6l0,-21.4Zm-196.3,31.5l-11.3,0l-0.1,-41.5l10.7,0c7.7,0 11,3.8 11,11c0.3,3.6 -1.7,7.1 -4.9,8.7c3.6,1.6 5.8,4.5 5.8,9.8c0,6.8 -3,12 -11.2,12Zm54.2,0l-11.3,0l0,-41.5l10.6,0c7.7,0 11,3.8 11,11c0.3,3.6 -1.7,7.1 -4.9,8.7c3.6,1.6 5.8,4.5 5.8,9.8c0,6.8 -3,12 -11.2,12Zm177.7,-6.2l11.2,0l0,6.2l-18.3,0l0,-41.5l7.1,0l0,35.3Zm22.3,0l11.2,0l0,6.2l-18.3,0l0,-41.5l7.1,0l0,35.3Zm34.9,-29.1l-12,0l0,10.7l9.2,0l0,6.2l-9.2,0l0,12.2l12.8,0l0,6.2l-20,0l0,-41.5l19.2,0l0,6.2Zm54.3,0l-12,0l0,10.7l9.2,0l0,6.2l-9.2,0l0,12.2l12.8,0l0,6.2l-20,0l0,-41.5l19.2,0l0,6.2Zm-211,35.3l-6.4,0l0,-41.5l6.6,0l8.7,23.8l0.1,0l0,-23.8l6.4,0l0,41.5l-6.2,0l-9.1,-26l-0.1,0l0,26Zm-93.6,0l-6.9,0l-1.3,-9.2l-7.8,0l-1.3,9.2l-6.9,0l7.7,-41.5l8.9,0l7.6,41.5Zm65.6,-10.2c0,3.1 0.9,4.6 3.8,4.6c2.9,0 3.8,-1.5 3.8,-4.6l0,-21.1c0,-3.1 -0.9,-4.6 -3.8,-4.6c-2.9,0 -3.8,1.5 -3.8,4.6l0,21.1Zm99.1,0c0,3.1 0.9,4.6 3.8,4.6c2.9,0 3.8,-1.5 3.8,-4.6l0,-21.1c0,-3.1 -0.9,-4.6 -3.8,-4.6c-2.9,0 -3.8,1.5 -3.8,4.6l0,21.1Zm-205.5,-8.5l-2.3,0l0,12.8l3,0c3.8,0 5.2,-2.2 5.2,-6.4c0,-4.2 -1.6,-6.4 -5.9,-6.4Zm54.2,0l-2.3,0l0.1,12.8l2.9,0c3.8,0 5.2,-2.2 5.2,-6.4c0,-4.2 -1.6,-6.4 -5.9,-6.4Zm-25.4,-14.4l-0.1,0l-2.9,17.8l5.8,0l-2.8,-17.8Zm-28.4,-2.6l-2.7,0l0,11.2l2.6,0c2.6,0.1 4.8,-2 4.8,-4.6l0,-0.7c0,-3.8 -1.5,-5.9 -4.7,-5.9Zm54.3,0l-2.7,0l0,11.2l2.6,0c2.6,0.1 4.8,-2 4.8,-4.6l0,-0.7c0,-3.8 -1.5,-5.9 -4.7,-5.9Z"/></svg>
